<svg xmlns="http://www.w3.org/2000/svg" viewBox="0 0 1600 400" width="1600" height="400" preserveAspectRatio="xMidYMax slice"><defs><linearGradient id="b0" x1="0" y1="152" x2="0" y2="262" gradientUnits="userSpaceOnUse"><stop offset="0" stop-color="#3d5b7f"/><stop offset="1" stop-color="#263e5d"/></linearGradient><linearGradient id="b1" x1="0" y1="206" x2="0" y2="316" gradientUnits="userSpaceOnUse"><stop offset="0" stop-color="#335c6d"/><stop offset="1" stop-color="#1c3f4c"/></linearGradient><radialGradient id="doorglow" cx="0.5" cy="0.5" r="0.5"><stop offset="0" stop-color="#FFD27A" stop-opacity="0.75"/><stop offset="0.5" stop-color="#FFB547" stop-opacity="0.25"/><stop offset="1" stop-color="#FFB547" stop-opacity="0"/></radialGradient><symbol id="hutl" viewBox="0 0 100 92" overflow="visible"><path d="M6 90C6 50 28 18 50 8C72 18 94 50 94 90Z" fill="#6B5552"/><path d="M50 8C72 18 94 50 94 90H74C76 54 66 26 50 8Z" fill="#55423F"/><path d="M14 64C30 58 70 58 86 64M20 46C34 40 66 40 80 46M30 30C40 26 60 26 70 30" fill="none" stroke="#4B3A39" stroke-width="3" stroke-linecap="round" opacity=".75"/><ellipse cx="50" cy="80" rx="30" ry="22" fill="url(#doorglow)"/><path d="M40 90V72C40 62 60 62 60 72V90Z" fill="#FFC861"/><path d="M43 90V73C43 66 57 66 57 73V90Z" fill="#FFE3A0"/><path d="M50 0L54 11H46Z" fill="#3F302E"/></symbol><symbol id="hutn" viewBox="0 0 100 92" overflow="visible"><path d="M6 90C6 50 28 18 50 8C72 18 94 50 94 90Z" fill="#6B5552"/><path d="M50 8C72 18 94 50 94 90H74C76 54 66 26 50 8Z" fill="#55423F"/><path d="M14 64C30 58 70 58 86 64M20 46C34 40 66 40 80 46M30 30C40 26 60 26 70 30" fill="none" stroke="#4B3A39" stroke-width="3" stroke-linecap="round" opacity=".75"/><path d="M40 90V72C40 62 60 62 60 72V90Z" fill="#2A1D1C"/><path d="M50 0L54 11H46Z" fill="#3F302E"/></symbol><linearGradient id="b2" x1="0" y1="256" x2="0" y2="366" gradientUnits="userSpaceOnUse"><stop offset="0" stop-color="#2e5b63"/><stop offset="1" stop-color="#183e43"/></linearGradient><symbol id="bpn" viewBox="0 0 140 190"><path d="M62 190C61 156 63 124 67 90H79C82 124 84 156 84 190Z" fill="#2F5A49"/><path d="M69 190C68 158 70 126 72 92H76C77 126 76 158 77 190Z" fill="#3B6C55"/><path d="M72.9 91.3L70.2 87.3L67.3 83.5L65.9 78.4L63.2 74.6L60.2 71.1L56.9 68L53.4 65.4L49.6 63.2L45.7 61.5L41.5 60.3L37.2 59.8L32.8 60L28.5 60.9L24.3 62.6L20.4 64.9L19.8 71.4L13.9 71.6L11.2 75.7L9 80.3L7.5 85.5L7.3 91.5L6.9 97.6L9.1 98.4L12.7 93.7L16.8 90L19.9 86.8L22.6 84.1L25.1 82L27.4 80.4L29.5 79.3L31.4 78.6L33.2 78.1L34.2 71.6L36.8 77.7L38.8 77.7L41 78L43.5 78.5L46.3 79.2L49.2 80.3L52.5 81.6L55.9 83.2L59.5 85.1L64.4 86.3L67.7 89.4L71.1 92.7Z" fill="#123F35"/><path d="M72 92C50 64 22 56 14.6 83.2" fill="none" stroke="#2A5F4F" stroke-width="1.6" stroke-linecap="round" opacity=".7"/><path d="M72.9 92.8L76.5 89.1L80 85.9L85 84.6L88.7 82.7L92.1 81.1L95.2 79.8L98 78.9L100.5 78.3L102.7 77.9L104.5 77.9L106.1 78L107.5 78.2L110.7 73.6L110.3 79L112 79.9L113.9 81.1L116 82.9L118.3 85.2L120.8 88.2L123.7 91.6L127.5 95.5L130.9 100.3L133.1 99.7L133 93.6L133.2 87.7L132.1 82.5L130.3 77.8L128.2 73.6L125.6 69.9L122.6 66.6L119.2 63.9L115.3 61.9L111.2 60.6L106.9 60L102.7 60.3L98.6 61.3L94.7 62.8L91 65L87.6 67.5L84.4 70.6L81.4 74L78.6 77.9L77.1 83.1L74.1 87L71.1 91.2Z" fill="#123F35"/><path d="M72 92C96 62 120 58 126.3 85" fill="none" stroke="#2A5F4F" stroke-width="1.6" stroke-linecap="round" opacity=".7"/><path d="M73.2 91.7L71.9 85.8L70.4 80.2L71.1 73.7L69.9 68L68.3 62.5L66.4 57.2L64.2 52.2L61.8 47.5L59.1 43L56.2 38.9L53.1 35L49.8 31.5L46.3 28.4L42.6 25.7L38.7 23.4L34.8 21.5L30.7 20.2L26.6 19.4L22.5 19.2L18.5 20L14.9 22.4L11.8 24.7L12.2 27.3L15.2 28.9L17.7 31.4L19.8 33L22 34.4L24.1 35.9L26.9 36.4L30 37L30.9 41.3L33.3 43.4L35.8 45.8L44.6 42.8L41.1 51.3L43.8 54.4L46.6 57.7L49.5 61.2L52.4 65L55.4 69L58.4 73.2L61.6 77.6L66.4 81.6L68.7 86.9L70.8 92.3Z" fill="#195042"/><path d="M72 92C60 50 34 22 21.4 26.2" fill="none" stroke="#33705C" stroke-width="1.6" stroke-linecap="round" opacity=".7"/><path d="M73.1 92.4L75.5 86.7L78.1 81.2L83.1 77.1L86.4 72.6L89.6 68.4L92.7 64.4L95.7 60.6L98.6 57.2L101.5 54L104.2 51.1L106.9 48.5L109.3 46L108.2 39.4L114.1 42.1L116.2 40.5L118.2 39L120.1 37.8L122 36.6L123.9 35.6L125.9 34.3L128.5 32.3L131.5 31.2L132.5 28.8L130 26L126.9 23L123.2 21.6L119.2 21.2L115.2 21.5L111.1 22.4L107.1 23.9L103.3 25.9L99.6 28.3L96 31.2L92.6 34.5L89.4 38.2L86.5 42.3L83.7 46.6L81.2 51.3L78.8 56.3L76.8 61.6L75 67.2L73.6 73L74.1 79.7L72.4 85.6L70.9 91.6Z" fill="#1C5847"/><path d="M72 92C86 48 112 22 123.3 28.6" fill="none" stroke="#387A62" stroke-width="1.6" stroke-linecap="round" opacity=".7"/><path d="M73.2 92.1L73.8 87.8L74.5 83.4L76.9 79.3L78.2 75.1L79.4 70.9L80.5 66.8L81.6 62.7L82.6 58.6L83.6 54.6L84.6 50.6L85.5 46.6L86.5 42.6L87.4 38.8L88.2 34.9L89.1 31.1L89.9 27.3L90.8 23.6L91.5 19.9L92.3 16.2L92.8 12.4L92.6 8.3L92.9 4.4L91.1 3.6L88.2 6.3L84.9 9L82.5 12.3L80.5 15.8L78.7 19.4L77 23.2L75.5 27.1L76.4 31.7L73.7 35.3L71.9 39.2L71 43.4L70.2 47.7L69.6 52L69.1 56.3L68.8 60.7L68.6 65.2L68.6 69.6L68.8 74.1L69.2 78.6L70.8 83.1L70.8 87.5L70.8 91.9Z" fill="#24684F"/><path d="M72 92C74 60 80 28 87.3 14.5" fill="none" stroke="#46896B" stroke-width="1.6" stroke-linecap="round" opacity=".7"/><path d="M74 94C79 102 81 110 81 122" fill="none" stroke="#2C4A3A" stroke-width="3" stroke-linecap="round"/><g fill="#6E7A45"><path d="M76 103C70 101 66 106 67 113C70 110 73 108 78 108Z"/><path d="M78 108C72 107 69 112 70 119C73 116 76 114 81 113Z"/><path d="M80 113C75 113 72 118 74 124C76 121 79 119 84 118Z"/><path d="M84 104C90 101 94 106 93 113C90 110 87 108 82 108Z"/><path d="M85 109C91 107 94 112 93 119C90 116 87 114 83 114Z"/></g><path d="M81 121C87 124 88 136 81 141C74 136 75 124 81 121Z" fill="#5A2648"/><path d="M79 126C78 130 78 133 79 136" fill="none" stroke="#7E4466" stroke-width="1.6" stroke-linecap="round"/></symbol><linearGradient id="b3" x1="0" y1="310" x2="0" y2="420" gradientUnits="userSpaceOnUse"><stop offset="0" stop-color="#2a5759"/><stop offset="1" stop-color="#143b39"/></linearGradient><linearGradient id="b4" x1="0" y1="354" x2="0" y2="464" gradientUnits="userSpaceOnUse"><stop offset="0" stop-color="#254f49"/><stop offset="1" stop-color="#0f342b"/></linearGradient><symbol id="fl" viewBox="0 0 20 20"><g fill="currentColor"><circle cx="10" cy="5" r="4.2"/><circle cx="15" cy="10" r="4.2"/><circle cx="10" cy="15" r="4.2"/><circle cx="5" cy="10" r="4.2"/></g><circle cx="10" cy="10" r="3.2" fill="#E9C25A"/></symbol><symbol id="tf" viewBox="0 0 30 16"><path d="M2 16C4 10 6 6 9 4C9 9 10 12 12 16ZM10 16C12 8 15 3 19 0C18 7 18 11 19 16ZM17 16C20 10 24 7 28 6C26 10 24 13 24 16Z" fill="currentColor"/></symbol><radialGradient id="ffg" cx="0.5" cy="0.5" r="0.5"><stop offset="0" stop-color="#FFE38A" stop-opacity="0.85"/><stop offset="0.35" stop-color="#FFD45E" stop-opacity="0.35"/><stop offset="1" stop-color="#FFD45E" stop-opacity="0"/></radialGradient><symbol id="ff" viewBox="-8 -8 16 16" overflow="visible"><circle r="8" fill="url(#ffg)"/><circle r="1.7" fill="#FFF1B0"/></symbol></defs><path d="M100 188C182.5 182.4 220 156 236.5 148Q250 150.5 263.5 148C280 156 317.5 182.4 400 188ZM390 188C483.5 180.4 526 144.8 544.7 134Q560 136.5 575.3 134C594 144.8 636.5 180.4 730 188ZM520 188C641 176.2 696 120.8 720.2 104Q740 106.5 759.8 104C784 120.8 839 176.2 960 188ZM910 188C1020 179 1070 136.8 1092 124Q1110 126.5 1128 124C1150 136.8 1200 179 1310 188ZM1280 188C1357 183 1392 159.2 1407.4 152Q1420 154.5 1432.6 152C1448 159.2 1483 183 1560 188Z" fill="#29366A"/><path d="M255.4 149C280 156 317.5 182.4 400 188H268C265 172 263.5 160 255.4 149ZM566.1 135C594 144.8 636.5 180.4 730 188H580.4C577 166.4 575.3 150.2 566.1 135ZM747.9 105C784 120.8 839 176.2 960 188H766.4C762 154.4 759.8 129.2 747.9 105ZM1117.2 125C1150 136.8 1200 179 1310 188H1134C1130 162.4 1128 143.2 1117.2 125ZM1425 153C1448 159.2 1483 183 1560 188H1436.8C1434 173.6 1432.6 162.8 1425 153Z" fill="#22305F"/><path d="M-64 186c19.2-1.2 76.8-4 115.2-7.2c38.4-3.3 76.8-10.6 115.2-12.1c38.4-1.5 76.8 1 115.2 3c38.4 1.9 76.8 6.7 115.2 8.7c38.4 2 76.8 3.9 115.2 3.3c38.4-.6 76.8-4.9 115.2-6.8c38.4-2 76.8-5.2 115.2-4.8c38.4.4 76.8 4.8 115.2 7.1c38.4 2.4 76.8 6.8 115.2 6.8c38.4.1 76.8-3.4 115.2-6.4c38.4-3.1 76.8-9.2 115.2-11.8c38.4-2.5 76.8-3.8 115.2-3.5c38.4.2 76.8 2.8 115.2 4.9c38.4 2 76.8 5.7 115.2 7.5c38.4 1.8 96 2.8 115.2 3.3V400H-64Z" fill="url(#b0)"/><path d="M900 188.3c12.5.7 50 3.7 75 3.7c25 .1 50-1.7 75-3.4c25-1.7 50-4.3 75-6.7c25-2.4 50-6 75-7.8c25-1.9 50-3 75-3.5c25-.5 50-.4 75 .3c25 .7 50 2.3 75 3.8c25 1.4 62.5 4.1 75 5" fill="none" stroke="#405f81" stroke-width="2" stroke-linecap="round"/><path d="M-64 218c19.2.7 76.8 2 115.2 4.4c38.4 2.4 76.8 7.3 115.2 9.9c38.4 2.6 76.8 5.6 115.2 5.6c38.4.1 76.8-2.8 115.2-5.4c38.4-2.6 76.8-8.1 115.2-10c38.4-1.9 76.8-2.5 115.2-1.6c38.4.9 76.8 4.9 115.2 7c38.4 2.2 76.8 5.8 115.2 6c38.4.2 76.8-2.3 115.2-4.9c38.4-2.6 76.8-8.6 115.2-10.6c38.4-1.9 76.8-2.3 115.2-1c38.4 1.3 76.8 5.8 115.2 8.6c38.4 2.7 76.8 7.5 115.2 7.9c38.4.3 76.8-4 115.2-6c38.4-1.9 96-4.9 115.2-5.9V400H-64Z" fill="url(#b1)"/><path d="M60 242.1c11.7 1 46.7 4 70 5.7c23.3 1.7 46.7 3.5 70 4.8c23.3 1.2 46.7 2.6 70 2.9c23.3.2 46.7-.6 70-1.6c23.3-.9 46.7-2.4 70-4.1c23.3-1.7 46.7-4.5 70-6.1c23.3-1.5 46.7-2.7 70-3.4c23.3-.6 58.3-.2 70-.2L620 240.1c-11.7 1.4-46.7 5.8-70 8.3c-23.3 2.6-46.7 4.5-70 7c-23.3 2.5-46.7 5.9-70 8.1c-23.3 2.1-46.7 3.9-70 4.8c-23.3 1-46.7 1.6-70 .9c-23.3-.7-46.7-2.7-70-5c-23.3-2.2-46.7-4.6-70-8.3c-23.3-3.7-58.3-11.5-70-13.8Z" fill="#295362"/><path d="M1000 245.4c11.7-1 46.7-4.9 70-6.4c23.3-1.4 46.7-2.2 70-2.5c23.3-.3 46.7-.1 70 .8c23.3.9 46.7 3 70 4.6c23.3 1.6 46.7 3.6 70 5.2c23.3 1.6 46.7 4 70 4.5c23.3.5 46.7-.6 70-1.5c23.3-1 58.3-3.4 70-4.1L1560 246c-11.7 1.9-46.7 8.5-70 11.1c-23.3 2.7-46.7 4.4-70 4.7c-23.3.4-46.7-1.5-70-2.7c-23.3-1.2-46.7-3-70-4.6c-23.3-1.6-46.7-3.9-70-5.2c-23.3-1.3-46.7-2-70-2.6c-23.3-.5-46.7-.4-70-.6c-23.3-.2-58.3-.6-70-.7Z" fill="#295362"/><path d="M40 229.8c13.3 1.1 53.3 4.5 80 6.6c26.7 2.1 53.3 4.6 80 6.2c26.7 1.6 53.3 3.3 80 3.3c26.7.1 53.3-1.4 80-2.9c26.7-1.6 53.3-4.1 80-6.3c26.7-2.1 53.3-5.2 80-6.6c26.7-1.3 53.3-1.8 80-1.6c26.7.3 66.7 2.6 80 3.1M100 254.2c12.8 1 51.1 4.3 76.7 5.9c25.5 1.7 51.1 3.4 76.6 4c25.6.5 51.1.1 76.7-.7c25.6-.9 51.1-2.6 76.7-4.4c25.5-1.8 51.1-4.9 76.6-6.5c25.6-1.7 63.9-2.8 76.7-3.4M900 242.1c12.6-.7 50.4-2.3 75.6-4.3c25.1-2 50.3-5.5 75.5-7.5c25.2-2 50.4-3.6 75.6-4.3c25.2-.6 50.3-.6 75.5.4c25.2.9 50.4 3.3 75.6 5.2c25.2 1.9 50.3 4.4 75.5 6.2c25.2 1.9 50.4 4.7 75.6 5c25.2.3 50.4-1.7 75.5-3c25.2-1.2 63-3.7 75.6-4.5M1040 252.4c13.3-.8 53.3-4 80-4.7c26.7-.8 53.3-.8 80 .1c26.7.8 53.3 3.1 80 4.9c26.7 1.8 53.3 4.3 80 6c26.7 1.7 53.3 3.9 80 4c26.7 0 53.3-2.4 80-3.7c26.7-1.3 66.7-3.4 80-4" fill="none" stroke="#36606e" stroke-width="2.4" stroke-linecap="round"/><use href="#hutl" x="336" y="221.8" width="28" height="25.8"/><use href="#hutn" x="368" y="229.4" width="20" height="18.4"/><use href="#hutn" x="1249" y="209.3" width="26" height="23.9"/><use href="#hutl" x="1278.5" y="220" width="19" height="17.5"/><path d="M-64 286c19.2-.6 76.8-1.6 115.2-3.7c38.4-2 76.8-6 115.2-8.3c38.4-2.3 76.8-4.8 115.2-5.5c38.4-.6 76.8.1 115.2 1.7c38.4 1.5 76.8 5.1 115.2 7.6c38.4 2.4 76.8 6 115.2 7.1c38.4 1.1 76.8.9 115.2-.6c38.4-1.4 76.8-6.2 115.2-8.2c38.4-2 76.8-4.3 115.2-4c38.4.3 76.8 3.6 115.2 5.9c38.4 2.3 76.8 6.3 115.2 7.9c38.4 1.5 76.8 2.1 115.2 1.5c38.4-.7 76.8-3.4 115.2-5.7c38.4-2.3 76.8-6.2 115.2-8.1c38.4-2 96-3 115.2-3.6V400H-64Z" fill="url(#b2)"/><path d="M880 294.8c12.8-.4 51.1-2.5 76.7-2.6c25.5-.1 51.1 1.1 76.6 2.3c25.6 1.1 63.9 3.9 76.7 4.6M880 308.9c12.8-.4 51.1-2.5 76.7-2.6c25.5-.1 51.1 1.1 76.6 2.3c25.6 1.1 63.9 3.9 76.7 4.6M880 323c12.8-.4 51.1-2.5 76.7-2.6c25.5-.1 51.1 1.1 76.6 2.3c25.6 1.1 63.9 3.9 76.7 4.6M880 337.1c12.8-.4 51.1-2.5 76.7-2.6c25.5-.1 51.1 1.1 76.6 2.3c25.6 1.1 63.9 3.9 76.7 4.6" fill="none" stroke="#163e3e" stroke-width="8" stroke-linecap="round" stroke-dasharray="0.1 6.6"/><path d="M200 291.2c11.1-.5 44.4-2.3 66.7-2.8c22.2-.6 44.4-.6 66.6-.4c22.3.2 44.5.8 66.7 1.7c22.2.9 44.4 2.4 66.7 3.8c22.2 1.3 44.4 2.8 66.6 4.2c22.3 1.4 55.6 3.4 66.7 4.1L600 301.8c-11.1 1.1-44.4 5.5-66.7 6.6c-22.2 1.1-44.4.4-66.6-.1c-22.3-.4-44.5-1.5-66.7-2.4c-22.2-.9-44.4-1.9-66.7-3c-22.2-1.2-44.4-1.9-66.6-3.8c-22.3-2-55.6-6.6-66.7-7.9Z" fill="#245257"/><path d="M160 282.4c13.3-.8 53.3-3.5 80-4.6c26.7-1 53.3-1.5 80-1.5c26.7.1 53.3.8 80 2c26.7 1.2 53.3 3.4 80 5.2c26.7 1.8 53.3 4 80 5.7c26.7 1.6 66.7 3.3 80 4M120 306.2c12.2-.8 48.9-3.2 73.3-4.4c24.5-1.3 48.9-2.6 73.4-3.1c24.4-.6 48.9-.6 73.3-.3c24.4.3 48.9 1 73.3 2.1c24.5 1.1 48.9 3 73.4 4.5c24.4 1.5 61.1 3.7 73.3 4.5M1160 293.3c12.2.6 48.9 2.9 73.3 3.6c24.5.7 48.9 1 73.4.6c24.4-.3 48.9-1.4 73.3-2.6c24.4-1.2 48.9-2.8 73.3-4.5c24.5-1.6 48.9-4.1 73.4-5.5c24.4-1.5 61.1-2.7 73.3-3.3M1220 316.9c12.7.1 50.7 1.1 76 .9c25.3-.1 50.7-1 76-2c25.3-1 50.7-2.5 76-4.1c25.3-1.5 50.7-3.8 76-5.1c25.3-1.4 63.3-2.6 76-3.1" fill="none" stroke="#315f64" stroke-width="2.8" stroke-linecap="round"/><use href="#bpn" transform="matrix(-1 0 0 1 1296 0)" x="613" y="202.3" width="70" height="95"/><use href="#bpn" x="795" y="208.1" width="62" height="84.1"/><path d="M650 328.5V318.9M655 328.5V315.6M660 328.5V318.3M665 328.5V318.4M670 328.5V315.6M675 328.5V318.9M680 328.5V317.7M685 328.5V315.8M690 328.5V319.3M695 328.5V317M700 328.5V316.3M705 328.5V319.4M710 328.5V316.4M715 328.5V316.9M720 328.5V319.3M725 328.5V315.9M730 328.5V317.6M735 328.5V319M740 328.5V315.6M745 328.5V318.3M750 328.5V318.4M755 328.5V315.6M760 328.5V318.9M765 328.5V317.7M770 328.5V315.8M775 328.5V319.3M780 328.5V317M785 328.5V316.3M790 328.5V319.4M795 328.5V316.4M800 328.5V316.9M805 328.5V319.3M810 328.5V315.9M815 328.5V317.6M820 328.5V319" stroke="#4A3E43" stroke-width="2.6" stroke-linecap="round"/><path d="M648 321.4H824M648 325.3H824" stroke="#4A3E43" stroke-width="2" stroke-linecap="round" opacity=".8"/><use href="#hutl" x="668" y="257.1" width="72" height="66.2"/><use href="#hutn" x="749" y="272.7" width="54" height="49.7"/><g transform="translate(1350 312.4) scale(-0.8 0.8)"><path d="M-17-12V0M-10-11V0M11-11V0M17-12V0" stroke="#2A2028" stroke-width="3.6" stroke-linecap="round"/><path d="M-24-17C-27-12-27-6-25-2" fill="none" stroke="#2A2028" stroke-width="1.8" stroke-linecap="round"/><path d="M-23-14C-25-24-19-29-8-29H8C12-33 18-33 21-29C25-26 25-18 22-13C18-9 12-9 4-9H-14C-19-9-22-10-23-14Z" fill="#4A3A44"/><path d="M-15-11C-6-14 8-14 16-11C8-9-6-9-15-11Z" fill="#5E4C55" opacity=".7"/><path d="M19-28C22-32 28-33 31-30L35-21C36-18 34-16 31-16C27-16 24-19 21-22Z" fill="#4A3A44"/><ellipse cx="32.5" cy="-18.5" rx="3.6" ry="3" fill="#5E4C55"/><path d="M20-29C17-31 15-31 14-29C16-28 18-27 20-27Z" fill="#2A2028"/><path d="M24-31C21-38 21-46 27-52M26-31C32-37 38-39 44-36" fill="none" stroke="#B9B2B8" stroke-width="2.6" stroke-linecap="round"/></g><path d="M-64 324c19.2.4 76.8.9 115.2 2.2c38.4 1.2 76.8 3.6 115.2 5.2c38.4 1.6 76.8 3.2 115.2 4.3c38.4 1.1 76.8 2.3 115.2 2.3c38.4 0 76.8-1 115.2-2.2c38.4-1.1 76.8-3.4 115.2-4.9c38.4-1.5 76.8-3.5 115.2-4.2c38.4-.7 76.8-.7 115.2 0c38.4.7 76.8 2.6 115.2 4.1c38.4 1.5 76.8 3.7 115.2 4.9c38.4 1.2 76.8 2.2 115.2 2.3c38.4.1 76.8-.9 115.2-1.8c38.4-1 76.8-2.4 115.2-3.8c38.4-1.4 76.8-3.4 115.2-4.5c38.4-1.1 96-1.6 115.2-1.9V400H-64Z" fill="url(#b3)"/><path d="M828 391.2c-3.4-3.1-11.9-12.5-20.3-18.9c-8.5-6.3-22-14.4-30.4-19.2c-8.4-4.8-14.8-5.7-20.1-9.8c-5.3-4-9.8-12.2-11.7-14.6L738.5 332.7c1.4 3.3 4.3 13.6 8.3 20c4 6.3 9.7 11 15.9 18.2c6.3 7.2 16.1 17.1 21.6 24.8c5.6 7.6 9.7 17.6 11.7 21.1Z" fill="#264A4C"/><path d="M826.1 392.8c-3.4-3.2-11.8-12.4-20.2-18.7c-8.4-6.3-21.8-14.2-30.2-19.1c-8.4-4.8-14.9-5.8-20.3-10c-5.4-4.2-10.1-12.5-12.1-15L740.7 331.5c1.3 3.2 4 13.3 7.9 19.5c4 6.3 9.5 10.8 15.7 18c6.2 7.1 16.2 17.2 21.8 24.9c5.6 7.7 9.9 17.8 11.8 21.3Z" fill="#34605E"/><path d="M0 337c13.3.4 53.3 1.3 80 2.3c26.7 1 53.3 2.6 80 3.8c26.7 1.2 53.3 2.3 80 3.2c26.7 1 53.3 1.9 80 2.5c26.7.6 53.3 1.2 80 1.2c26.7 0 53.3-.6 80-1.2c26.7-.7 66.7-2.4 80-2.9M60 358.2c12.7.6 50.7 2.2 76 3.2c25.3 1 50.7 2 76 2.9c25.3.9 50.7 1.7 76 2.4c25.3.7 50.7 1.4 76 1.6c25.3.3 63.3 0 76 0M1000 343.9c12.5.6 50 2.5 75 3.4c25 .9 50 1.6 75 2.1c25 .4 50 .7 75 .5c25-.1 50-.7 75-1.3c25-.6 50-1.3 75-2.1c25-.8 50-1.7 75-2.7c25-1 50-2.3 75-3.1c25-.9 62.5-1.5 75-1.8" fill="none" stroke="#2e5a5a" stroke-width="3" stroke-linecap="round"/><use href="#bpn" transform="matrix(-1 0 0 1 1040 0)" x="456" y="201.9" width="128" height="173.7"/><use href="#bpn" x="1190" y="214.8" width="120" height="162.9"/><use href="#hutl" x="1029" y="303.6" width="62" height="57"/><g transform="translate(1150 367.4) scale(-1.05 1.05)"><path d="M-17-12V0M-10-11V0M11-11V0M17-12V0" stroke="#2A2028" stroke-width="3.6" stroke-linecap="round"/><path d="M-24-17C-27-12-27-6-25-2" fill="none" stroke="#2A2028" stroke-width="1.8" stroke-linecap="round"/><path d="M-23-14C-25-24-19-29-8-29H8C12-33 18-33 21-29C25-26 25-18 22-13C18-9 12-9 4-9H-14C-19-9-22-10-23-14Z" fill="#4A3A44"/><path d="M-15-11C-6-14 8-14 16-11C8-9-6-9-15-11Z" fill="#5E4C55" opacity=".7"/><path d="M19-28C22-32 28-33 31-30L35-21C36-18 34-16 31-16C27-16 24-19 21-22Z" fill="#4A3A44"/><ellipse cx="32.5" cy="-18.5" rx="3.6" ry="3" fill="#5E4C55"/><path d="M20-29C17-31 15-31 14-29C16-28 18-27 20-27Z" fill="#2A2028"/><path d="M24-31C21-38 21-46 27-52M26-31C32-37 38-39 44-36" fill="none" stroke="#B9B2B8" stroke-width="2.6" stroke-linecap="round"/></g><path d="M-64 380c19.2-.2 76.8-.5 115.2-1.3c38.4-.7 76.8-2.1 115.2-3.1c38.4-1 76.8-2 115.2-2.8c38.4-.8 76.8-1.6 115.2-2.1c38.4-.4 76.8-.8 115.2-.6c38.4.1 76.8.8 115.2 1.6c38.4.8 76.8 2 115.2 2.9c38.4.9 76.8 1.9 115.2 2.5c38.4.5 76.8.8 115.2.9c38.4.1 76.8-.2 115.2-.4c38.4-.2 76.8-.6 115.2-1c38.4-.3 76.8-.8 115.2-1.2c38.4-.4 76.8-.9 115.2-1.4c38.4-.5 76.8-1.1 115.2-1.4c38.4-.4 96-.5 115.2-.6V400H-64Z" fill="url(#b4)"/><g color="#8F8AC4"><use href="#fl" x="560.4" y="388.1" width="9.6" height="9.6" opacity="0.65"/><use href="#fl" x="987.9" y="392.3" width="10.7" height="10.7" opacity="0.59"/><use href="#fl" x="1531.1" y="374.3" width="13.3" height="13.3" opacity="0.63"/><use href="#fl" x="595" y="380.5" width="12" height="12" opacity="0.58"/><use href="#fl" x="751.5" y="390.9" width="12.9" height="12.9" opacity="0.74"/><use href="#fl" x="396.7" y="378.9" width="12.3" height="12.3" opacity="0.71"/><use href="#fl" x="188.7" y="379.4" width="10.6" height="10.6" opacity="0.51"/><use href="#fl" x="753.3" y="392.7" width="9.4" height="9.4" opacity="0.5"/></g><g color="#7468B0"><use href="#fl" x="1227.2" y="390.2" width="11.7" height="11.7" opacity="0.72"/><use href="#fl" x="929.8" y="381.3" width="11.2" height="11.2" opacity="0.77"/><use href="#fl" x="1260.6" y="390.5" width="12.5" height="12.5" opacity="0.55"/><use href="#fl" x="12.3" y="386.1" width="14.1" height="14.1" opacity="0.52"/><use href="#fl" x="1077" y="383.5" width="9.4" height="9.4" opacity="0.62"/><use href="#fl" x="1509.8" y="376.4" width="9.6" height="9.6" opacity="0.71"/><use href="#fl" x="532.9" y="379.1" width="9" height="9" opacity="0.54"/><use href="#fl" x="1467.7" y="387.5" width="10.8" height="10.8" opacity="0.75"/><use href="#fl" x="1498.6" y="390.2" width="13" height="13" opacity="0.76"/><use href="#fl" x="225.2" y="376.4" width="11.7" height="11.7" opacity="0.67"/><use href="#fl" x="397.8" y="381.2" width="14" height="14" opacity="0.55"/></g><g color="#B9B08A"><use href="#fl" x="1338.4" y="381.3" width="14.2" height="14.2" opacity="0.63"/><use href="#fl" x="629.8" y="384.9" width="14.2" height="14.2" opacity="0.69"/><use href="#fl" x="270.7" y="381.5" width="13.7" height="13.7" opacity="0.67"/><use href="#fl" x="671" y="380" width="11" height="11" opacity="0.76"/><use href="#fl" x="1423.8" y="379" width="9" height="9" opacity="0.66"/><use href="#fl" x="454.6" y="378.7" width="11.8" height="11.8" opacity="0.52"/><use href="#fl" x="1390.8" y="385.1" width="14.2" height="14.2" opacity="0.72"/><use href="#fl" x="779.3" y="380.2" width="10.6" height="10.6" opacity="0.55"/><use href="#fl" x="786" y="392" width="11.5" height="11.5" opacity="0.62"/><use href="#fl" x="405.5" y="381.2" width="13.2" height="13.2" opacity="0.73"/><use href="#fl" x="349.9" y="384.8" width="13.3" height="13.3" opacity="0.7"/></g><g color="#0E3328"><use href="#tf" x="696.5" y="380.6" width="32.4" height="17.3"/><use href="#tf" x="1401.2" y="380.7" width="26.7" height="14.2"/><use href="#tf" x="1477.9" y="377.9" width="32.5" height="17.3"/><use href="#tf" x="647.4" y="373.7" width="27" height="14.4"/><use href="#tf" x="1049.2" y="378.7" width="31.9" height="17"/><use href="#tf" x="525.9" y="366" width="27.4" height="14.6"/><use href="#tf" x="918.2" y="375.3" width="35.2" height="18.8"/><use href="#tf" x="1331.4" y="379.4" width="33.5" height="17.9"/><use href="#tf" x="1551.8" y="377.6" width="29.6" height="15.8"/><use href="#tf" x="1189.2" y="376.4" width="26.4" height="14.1"/></g><use href="#bpn" transform="matrix(-1 0 0 1 100 0)" x="-35" y="183.3" width="170" height="230.7"/><use href="#bpn" x="1490" y="192.9" width="160" height="217.1"/><use href="#ff" x="592" y="292" width="16" height="16"/><use href="#ff" x="553.6" y="335.6" width="12.8" height="12.8"/><use href="#ff" x="892.8" y="292.8" width="14.4" height="14.4"/><use href="#ff" x="1002" y="322" width="16" height="16"/><use href="#ff" x="1193.6" y="289.6" width="12.8" height="12.8"/><use href="#ff" x="372" y="344" width="16" height="16"/><use href="#ff" x="1442.8" y="336.8" width="14.4" height="14.4"/><use href="#ff" x="694.4" y="354.4" width="11.2" height="11.2"/><use href="#ff" x="954.4" y="256.4" width="11.2" height="11.2"/><use href="#ff" x="853.6" y="345.6" width="12.8" height="12.8"/></svg>
