<svg xmlns="http://www.w3.org/2000/svg" viewBox="0 0 390 420" width="390" height="420" preserveAspectRatio="xMidYMax slice"><defs><linearGradient id="b0" x1="0" y1="90" x2="0" y2="230" gradientUnits="userSpaceOnUse"><stop offset="0" stop-color="#b5d49d"/><stop offset="1" stop-color="#96c288"/></linearGradient><symbol id="hut" viewBox="0 0 100 92" overflow="visible"><path d="M6 90C6 50 28 18 50 8C72 18 94 50 94 90Z" fill="#D9A156"/><path d="M50 8C72 18 94 50 94 90H74C76 54 66 26 50 8Z" fill="#C2873E"/><path d="M14 64C30 58 70 58 86 64M20 46C34 40 66 40 80 46M30 30C40 26 60 26 70 30" fill="none" stroke="#B57A35" stroke-width="3" stroke-linecap="round" opacity=".75"/><path d="M40 90V72C40 62 60 62 60 72V90Z" fill="#6E4122"/><path d="M50 0L54 11H46Z" fill="#8A5A2B"/></symbol><symbol id="bp" viewBox="0 0 140 190"><path d="M62 190C61 156 63 124 67 90H79C82 124 84 156 84 190Z" fill="#7FA24A"/><path d="M69 190C68 158 70 126 72 92H76C77 126 76 158 77 190Z" fill="#96BA5C"/><path d="M72.9 91.3L70.2 87.3L67.3 83.5L65.9 78.4L63.2 74.6L60.2 71.1L56.9 68L53.4 65.4L49.6 63.2L45.7 61.5L41.5 60.3L37.2 59.8L32.8 60L28.5 60.9L24.3 62.6L20.4 64.9L19.8 71.4L13.9 71.6L11.2 75.7L9 80.3L7.5 85.5L7.3 91.5L6.9 97.6L9.1 98.4L12.7 93.7L16.8 90L19.9 86.8L22.6 84.1L25.1 82L27.4 80.4L29.5 79.3L31.4 78.6L33.2 78.1L34.2 71.6L36.8 77.7L38.8 77.7L41 78L43.5 78.5L46.3 79.2L49.2 80.3L52.5 81.6L55.9 83.2L59.5 85.1L64.4 86.3L67.7 89.4L71.1 92.7Z" fill="#2E8443"/><path d="M72 92C50 64 22 56 14.6 83.2" fill="none" stroke="#5DAF68" stroke-width="1.6" stroke-linecap="round" opacity=".7"/><path d="M72.9 92.8L76.5 89.1L80 85.9L85 84.6L88.7 82.7L92.1 81.1L95.2 79.8L98 78.9L100.5 78.3L102.7 77.9L104.5 77.9L106.1 78L107.5 78.2L110.7 73.6L110.3 79L112 79.9L113.9 81.1L116 82.9L118.3 85.2L120.8 88.2L123.7 91.6L127.5 95.5L130.9 100.3L133.1 99.7L133 93.6L133.2 87.7L132.1 82.5L130.3 77.8L128.2 73.6L125.6 69.9L122.6 66.6L119.2 63.9L115.3 61.9L111.2 60.6L106.9 60L102.7 60.3L98.6 61.3L94.7 62.8L91 65L87.6 67.5L84.4 70.6L81.4 74L78.6 77.9L77.1 83.1L74.1 87L71.1 91.2Z" fill="#2E8443"/><path d="M72 92C96 62 120 58 126.3 85" fill="none" stroke="#5DAF68" stroke-width="1.6" stroke-linecap="round" opacity=".7"/><path d="M73.2 91.7L71.9 85.8L70.4 80.2L71.1 73.7L69.9 68L68.3 62.5L66.4 57.2L64.2 52.2L61.8 47.5L59.1 43L56.2 38.9L53.1 35L49.8 31.5L46.3 28.4L42.6 25.7L38.7 23.4L34.8 21.5L30.7 20.2L26.6 19.4L22.5 19.2L18.5 20L14.9 22.4L11.8 24.7L12.2 27.3L15.2 28.9L17.7 31.4L19.8 33L22 34.4L24.1 35.9L26.9 36.4L30 37L30.9 41.3L33.3 43.4L35.8 45.8L44.6 42.8L41.1 51.3L43.8 54.4L46.6 57.7L49.5 61.2L52.4 65L55.4 69L58.4 73.2L61.6 77.6L66.4 81.6L68.7 86.9L70.8 92.3Z" fill="#3F9B52"/><path d="M72 92C60 50 34 22 21.4 26.2" fill="none" stroke="#7CC67F" stroke-width="1.6" stroke-linecap="round" opacity=".7"/><path d="M73.1 92.4L75.5 86.7L78.1 81.2L83.1 77.1L86.4 72.6L89.6 68.4L92.7 64.4L95.7 60.6L98.6 57.2L101.5 54L104.2 51.1L106.9 48.5L109.3 46L108.2 39.4L114.1 42.1L116.2 40.5L118.2 39L120.1 37.8L122 36.6L123.9 35.6L125.9 34.3L128.5 32.3L131.5 31.2L132.5 28.8L130 26L126.9 23L123.2 21.6L119.2 21.2L115.2 21.5L111.1 22.4L107.1 23.9L103.3 25.9L99.6 28.3L96 31.2L92.6 34.5L89.4 38.2L86.5 42.3L83.7 46.6L81.2 51.3L78.8 56.3L76.8 61.6L75 67.2L73.6 73L74.1 79.7L72.4 85.6L70.9 91.6Z" fill="#43A457"/><path d="M72 92C86 48 112 22 123.3 28.6" fill="none" stroke="#86CC87" stroke-width="1.6" stroke-linecap="round" opacity=".7"/><path d="M73.2 92.1L73.8 87.8L74.5 83.4L76.9 79.3L78.2 75.1L79.4 70.9L80.5 66.8L81.6 62.7L82.6 58.6L83.6 54.6L84.6 50.6L85.5 46.6L86.5 42.6L87.4 38.8L88.2 34.9L89.1 31.1L89.9 27.3L90.8 23.6L91.5 19.9L92.3 16.2L92.8 12.4L92.6 8.3L92.9 4.4L91.1 3.6L88.2 6.3L84.9 9L82.5 12.3L80.5 15.8L78.7 19.4L77 23.2L75.5 27.1L76.4 31.7L73.7 35.3L71.9 39.2L71 43.4L70.2 47.7L69.6 52L69.1 56.3L68.8 60.7L68.6 65.2L68.6 69.6L68.8 74.1L69.2 78.6L70.8 83.1L70.8 87.5L70.8 91.9Z" fill="#5CBE6C"/><path d="M72 92C74 60 80 28 87.3 14.5" fill="none" stroke="#A6DB98" stroke-width="1.6" stroke-linecap="round" opacity=".7"/><path d="M74 94C79 102 81 110 81 122" fill="none" stroke="#6F8F3C" stroke-width="3" stroke-linecap="round"/><g fill="#CBD458"><path d="M76 103C70 101 66 106 67 113C70 110 73 108 78 108Z"/><path d="M78 108C72 107 69 112 70 119C73 116 76 114 81 113Z"/><path d="M80 113C75 113 72 118 74 124C76 121 79 119 84 118Z"/><path d="M84 104C90 101 94 106 93 113C90 110 87 108 82 108Z"/><path d="M85 109C91 107 94 112 93 119C90 116 87 114 83 114Z"/></g><path d="M81 121C87 124 88 136 81 141C74 136 75 124 81 121Z" fill="#9A3C62"/><path d="M79 126C78 130 78 133 79 136" fill="none" stroke="#C5648A" stroke-width="1.6" stroke-linecap="round"/></symbol><linearGradient id="b1" x1="0" y1="204" x2="0" y2="330" gradientUnits="userSpaceOnUse"><stop offset="0" stop-color="#92c685"/><stop offset="1" stop-color="#6fb26c"/></linearGradient><symbol id="fl" viewBox="0 0 20 20"><g fill="currentColor"><circle cx="10" cy="5" r="4.2"/><circle cx="15" cy="10" r="4.2"/><circle cx="10" cy="15" r="4.2"/><circle cx="5" cy="10" r="4.2"/></g><circle cx="10" cy="10" r="3.2" fill="#FFC23A"/></symbol><symbol id="tf" viewBox="0 0 30 16"><path d="M2 16C4 10 6 6 9 4C9 9 10 12 12 16ZM10 16C12 8 15 3 19 0C18 7 18 11 19 16ZM17 16C20 10 24 7 28 6C26 10 24 13 24 16Z" fill="currentColor"/></symbol></defs><path d="M-20 108c7.3-1.7 30-10.7 44-10c14 .7 24 5.3 40 14c16 8.7 21.7 31.7 56 38c34.3 6.3 115.7 6.7 150 0c34.3-6.7 40.7-31.3 56-40c15.3-8.7 22-11.3 36-12c14-.7 40 6.7 48 8V420H-20Z" fill="#D5DDB6"/><path d="M-20 150c10-4 38.3-16.3 60-24c21.7-7.7 44.2-17 70-22c25.8-5 56.7-7.7 85-8c28.3-.3 59.2 2 85 6c25.8 4 48.3 11.7 70 18c21.7 6.3 50 16.7 60 20V420H-20Z" fill="url(#b0)"/><path d="M-10 168.8c8.7-3 35-12.6 52.5-18.2c17.5-5.7 35-11.7 52.5-15.6c17.5-3.9 35-6 52.5-7.7c17.5-1.7 43.8-2 52.5-2.4L200 124.9c-8.7 2.3-35 9.8-52.5 13.8c-17.5 4.1-35 6.5-52.5 10.4c-17.5 3.9-35 9.6-52.5 12.9c-17.5 3.3-43.8 5.7-52.5 6.8Z" fill="#b3d59d"/><path d="M-10 155.9c13.3-5.1 53.3-22.8 80-30.7c26.7-7.9 53.3-13.7 80-16.8c26.7-3.1 66.7-1.3 80-1.6M-10 175.7c10.6-3.8 42.2-16.1 63.3-22.7c21.1-6.6 42.3-13.1 63.4-16.9c21.1-3.8 52.7-4.9 63.3-5.9M150 150.2c13.9-.2 55.6-3 83.3-1.3c27.8 1.8 55.6 5.9 83.4 11.8c27.7 6 69.4 19.8 83.3 23.8M-10 209.6c7.2-2.5 28.9-10.3 43.3-15c14.5-4.8 28.9-9.6 43.4-13.4c14.4-3.7 36.1-7.6 43.3-9.2" fill="none" stroke="#bcdaab" stroke-width="2.6" stroke-linecap="round"/><path d="M228 120.9c6.9.6 27.6 1.7 41.3 3.6c13.8 1.9 27.6 4.5 41.4 7.7c13.7 3.2 34.4 9.6 41.3 11.6M228 136.2c6.9.6 27.6 1.7 41.3 3.6c13.8 1.9 27.6 4.5 41.4 7.7c13.7 3.3 34.4 9.7 41.3 11.6M228 151.6c6.9.6 27.6 1.7 41.3 3.6c13.8 1.9 27.6 4.5 41.4 7.7c13.7 3.2 34.4 9.7 41.3 11.6" fill="none" stroke="#8ec182" stroke-width="7.5" stroke-linecap="round" stroke-dasharray="0.1 6.1"/><use href="#hut" x="26" y="105" width="40" height="36.8"/><use href="#hut" x="66" y="102.1" width="28" height="25.8"/><use href="#bp" x="300" y="42.4" width="80" height="108.6"/><path d="M-20 228c16.7-2 63.3-9 100-12c36.7-3 83.3-6 120-6c36.7 0 65 6.3 100 6c35-.3 91.7-6.7 110-8V420H-20Z" fill="url(#b1)"/><path d="M-10 244.7c14.4-1.7 57.8-7.8 86.7-10.4c28.9-2.7 57.7-5 86.6-5.5c28.9-.5 72.3 1.9 86.7 2.3" fill="none" stroke="#9dce95" stroke-width="3" stroke-linecap="round"/><g color="#FFB39C"><use href="#fl" x="160.2" y="212.4" width="11.5" height="11.5"/><use href="#fl" x="15.6" y="228.3" width="12.5" height="12.5"/><use href="#fl" x="45.8" y="222.4" width="10.1" height="10.1"/><use href="#fl" x="312.9" y="234" width="10.4" height="10.4"/></g><g color="#FFE08A"><use href="#fl" x="38.9" y="247.4" width="12.4" height="12.4"/></g><g color="#FFF6E2"><use href="#fl" x="188.4" y="234.4" width="10.1" height="10.1"/><use href="#fl" x="376.1" y="213.9" width="9.4" height="9.4"/><use href="#fl" x="48.5" y="227.2" width="9.1" height="9.1"/><use href="#fl" x="113" y="222.5" width="11" height="11"/></g><g color="#479C51"><use href="#tf" x="262.3" y="221" width="29" height="15.5"/><use href="#tf" x="217" y="217.6" width="24.9" height="13.3"/></g><path d="M-20 384c20-1.3 80-6.3 120-8c40-1.7 83.3-2.3 120-2c36.7.3 68.3 4 100 4c31.7 0 75-3.3 90-4V420H-20Z" fill="#58AB5D"/><g color="#FFB39C"><use href="#fl" x="204.1" y="381" width="10" height="10"/><use href="#fl" x="378.8" y="396.2" width="9.4" height="9.4"/></g><g color="#FFF6E2"><use href="#fl" x="184.3" y="392" width="9.7" height="9.7"/><use href="#fl" x="157.5" y="390.1" width="11.6" height="11.6"/></g><g color="#FFE08A"><use href="#fl" x="242.1" y="381.1" width="10.1" height="10.1"/></g><g color="#479C51"><use href="#tf" x="177" y="378.9" width="29" height="15.4"/><use href="#tf" x="63.4" y="383.6" width="26.6" height="14.2"/><use href="#tf" x="152" y="385.3" width="27.7" height="14.8"/></g></svg>
