<svg xmlns="http://www.w3.org/2000/svg" viewBox="0 0 240 240" width="240" height="240">
<defs>
<g id="orange" stroke="#263238" stroke-linejoin="round" stroke-linecap="round">
<circle cx="50" cy="57" r="34" fill="#FF9F43" stroke-width="4"/>
<circle cx="37" cy="45" r="7" fill="#FFC88A" stroke="none"/>
<g fill="#E8822A" stroke="none"><circle cx="62" cy="50" r="2"/><circle cx="56" cy="70" r="2"/><circle cx="70" cy="64" r="2"/><circle cx="42" cy="68" r="2"/></g>
<path d="M50 23C50 17 52 13 55 11" fill="none" stroke-width="4"/>
<path d="M54 18C62 8 76 10 81 16C71 23 61 23 54 18Z" fill="#3DAE6B" stroke-width="3.5"/>
</g></defs><use href="#orange" transform="translate(4.8 4.8) scale(1.1) rotate(-8 50 50)"/><use href="#orange" transform="translate(124.8 4.8) scale(1.1) rotate(6 50 50)"/><use href="#orange" transform="translate(4.8 124.8) scale(1.1) rotate(-4 50 50)"/><use href="#orange" transform="translate(124.8 124.8) scale(1.1) rotate(8 50 50)"/>
</svg>
