<svg xmlns="http://www.w3.org/2000/svg" viewBox="0 0 240 240" width="240" height="240"><defs><g id="n"><path transform="translate(-28.1 0)" d="M48.3-53.4L48.3-53.4Q48.3-51.3 47.4-49.4Q46.4-47.4 45.1-46.4L45.1-46.4Q42.4-47.6 39.5-48.3Q36.5-48.9 34-48.9L34-48.9Q28.1-48.9 24.8-45.8Q21.5-42.6 20.4-36.7L20.4-36.7Q22.4-38.1 25.7-39.3Q29-40.4 32.5-40.4L32.5-40.4Q41.7-40.4 47.2-35.1Q52.6-29.7 52.6-19.9L52.6-19.9Q52.6-14.2 49.9-9.3Q47.2-4.4 42.0-1.4Q36.7 1.6 28.8 1.6L28.8 1.6Q21 1.6 15.3-2.0Q9.6-5.5 6.6-12.3Q3.5-19.1 3.5-28.8L3.5-28.8Q3.5-37.1 5.6-43.4Q7.6-49.7 11.4-53.9Q15.2-58.1 20.4-60.2Q25.5-62.3 31.8-62.3L31.8-62.3Q37.1-62.3 40.8-61.3Q44.5-60.3 46.4-58.4Q48.3-56.4 48.3-53.4ZM28.9-11.9L28.9-11.9Q32.2-11.9 33.9-14.1Q35.5-16.3 35.5-19.8L35.5-19.8Q35.5-23.3 33.8-25.4Q32-27.4 28.7-27.4L28.7-27.4Q26.8-27.4 24.7-26.6Q22.5-25.8 21.2-24.4L21.2-24.4L21.2-21.9Q21.2-16.6 23.5-14.3Q25.7-11.9 28.9-11.9Z"/></g></defs><g transform="translate(120 189) scale(2.419)" stroke-linejoin="round"><use href="#n" y="4.6" fill="#1E73A6" stroke="#5A3112" stroke-width="1.32"/><use href="#n" y="2.3" fill="#1E73A6"/><use href="#n" fill="#4FB3EA" stroke="#5A3112" stroke-width="1.32" paint-order="stroke"/></g></svg>
