<svg xmlns="http://www.w3.org/2000/svg" viewBox="0 0 200 200" width="200" height="200"><defs><radialGradient id="sg" cx="0.4" cy="0.35" r="0.75"><stop offset="0" stop-color="#BFE9FF"/><stop offset="1" stop-color="#5BB6E8"/></radialGradient><radialGradient id="g-orange" cx="0.38" cy="0.35" r="0.75"><stop offset="0" stop-color="#FFC46E"/><stop offset="0.6" stop-color="#FF9A2E"/><stop offset="1" stop-color="#F07A12"/></radialGradient><g id="fr-orange" stroke="#5A3112" stroke-linejoin="round"><circle cx="50" cy="57" r="34" fill="url(#g-orange)"/><path d="M30 48C32 40 38 34 46 32" fill="none" stroke="#fff" stroke-opacity=".7" stroke-width="5.5" stroke-linecap="round"/><g fill="#E0711A" stroke="none"><circle cx="62" cy="50" r="2"/><circle cx="56" cy="72" r="2"/><circle cx="71" cy="64" r="2"/><circle cx="42" cy="70" r="2"/></g><path d="M50 23C50 17 52 13 55 11" fill="none" stroke-linecap="round"/><path d="M54 18C62 8 76 10 81 16C71 23 61 23 54 18Z" fill="#3DAE6B"/></g><linearGradient id="g-banana" x1="0" y1="0" x2="1" y2="1"><stop offset="0" stop-color="#FFE26A"/><stop offset="1" stop-color="#F8B91E"/></linearGradient><g id="fr-banana" stroke="#5A3112" stroke-linejoin="round"><path d="M18 30C16 62 40 84 76 80C84 79 86 72 80 70C54 72 34 56 30 30C29 24 19 24 18 30Z" fill="url(#g-banana)"/><path d="M28 42C34 58 46 66 62 70" fill="none" stroke="#E2A21A" stroke-width="3.5" stroke-linecap="round"/><path d="M22 36C22 48 26 56 32 64" fill="none" stroke="#fff" stroke-opacity=".7" stroke-width="4.5" stroke-linecap="round"/><path d="M21 28L20 18H27L28 28Z" fill="#8A6A2E"/></g><linearGradient id="g-avo" x1="0" y1="0" x2="1" y2="1"><stop offset="0" stop-color="#5C9E44"/><stop offset="1" stop-color="#3B7631"/></linearGradient><g id="fr-avocado" stroke="#5A3112" stroke-linejoin="round"><path d="M50 8C64 8 66 30 76 46C88 66 78 92 50 92C22 92 12 66 24 46C34 30 36 8 50 8Z" fill="url(#g-avo)"/><path d="M50 18C60 18 61 36 69 49C78 64 71 84 50 84C29 84 22 64 31 49C39 36 40 18 50 18Z" fill="#DCEE93" stroke="none"/><circle cx="50" cy="62" r="14" fill="#9A5B2E"/><circle cx="45" cy="57" r="4" fill="#C98552" stroke="none"/></g><linearGradient id="g-basket" x1="0" y1="0" x2="0" y2="1"><stop offset="0" stop-color="#F0BE6E"/><stop offset="1" stop-color="#C98B40"/></linearGradient><clipPath id="bk"><path d="M38 92C38 135.4 69 162 100 162C131 162 162 135.4 162 92C149.6 105.4 50.4 105.4 38 92Z"/></clipPath></defs><circle cx="100" cy="104" r="92" fill="#3A1F0E" opacity=".14"/><circle cx="100" cy="99" r="92" fill="#fff" stroke="#EEDFC8" stroke-width="1.5"/><circle cx="100" cy="99" r="77" fill="url(#sg)" stroke="#5A3112" stroke-width="4"/><path d="M100 99L175 99L174.4 108.8ZM100 99L165 136.5L159.5 144.7ZM100 99L137.5 164L128.7 168.3ZM100 99L100 174L90.2 173.4ZM100 99L62.5 164L54.3 158.5ZM100 99L35 136.5L30.7 127.7ZM100 99L25 99L25.6 89.2ZM100 99L35 61.5L40.5 53.3ZM100 99L62.5 34L71.3 29.7ZM100 99L100 24L109.8 24.6ZM100 99L137.5 34L145.7 39.5ZM100 99L165 61.5L169.3 70.3Z" fill="#E8F7FF" opacity=".35"/><ellipse cx="100" cy="92" rx="62" ry="11.2" fill="#8E5A22" stroke="#5A3112" stroke-width="4"/><use href="#fr-orange" transform="translate(54 56) scale(0.4)" stroke-width="10"/><use href="#fr-banana" transform="translate(81 39) scale(0.46) rotate(-20 50 50)" stroke-width="8.7"/><use href="#fr-orange" transform="translate(108 54) scale(0.4)" stroke-width="10"/><use href="#fr-avocado" transform="translate(83 65) scale(0.34) rotate(10 50 50)" stroke-width="11.76"/><path d="M38 92C38 135.4 69 162 100 162C131 162 162 135.4 162 92C149.6 105.4 50.4 105.4 38 92Z" fill="url(#g-basket)"/><g clip-path="url(#bk)"><path d="M28 149.4L37 142.4L46 149.4L55 142.4L64 149.4L73 142.4L82 149.4L91 142.4L100 149.4L109 142.4L118 149.4L127 142.4L136 149.4L145 142.4L154 149.4L163 142.4L172 149.4" fill="none" stroke="#8A3E22" stroke-width="4" stroke-linejoin="miter"/><path d="M28 160.6L37 153.6L46 160.6L55 153.6L64 160.6L73 153.6L82 160.6L91 153.6L100 160.6L109 153.6L118 160.6L127 153.6L136 160.6L145 153.6L154 160.6L163 153.6L172 160.6" fill="none" stroke="#D2693C" stroke-width="3.4" stroke-linejoin="miter"/><path d="M121.7 92C155.8 113 143.4 148 118.6 168H170V92Z" fill="#9C6420" opacity=".22"/></g><path d="M38 92C38 135.4 69 162 100 162C131 162 162 135.4 162 92C149.6 105.4 50.4 105.4 38 92Z" fill="none" stroke="#5A3112" stroke-width="4" stroke-linejoin="round"/><path d="M38 92C50.4 105.4 149.6 105.4 162 92" fill="none" stroke="#D9A055" stroke-width="7" stroke-linecap="round"/><path d="M38 92C50.4 105.4 149.6 105.4 162 92" fill="none" stroke="#5A3112" stroke-width="3" stroke-linecap="round"/><path d="M50.4 109.5C52.9 127 62.8 141 72.1 148" fill="none" stroke="#fff" stroke-width="4" stroke-linecap="round" opacity=".5"/><g transform="translate(100 124) scale(1.05)"><ellipse cx="-13" cy="0" rx="4.6" ry="5.8" fill="#3A1F0E"/><ellipse cx="13" cy="0" rx="4.6" ry="5.8" fill="#3A1F0E"/><circle cx="-11.4" cy="-2.4" r="1.8" fill="#fff"/><circle cx="14.6" cy="-2.4" r="1.8" fill="#fff"/><ellipse cx="-22" cy="9" rx="6" ry="3.8" fill="#FF6F5B" opacity=".45"/><ellipse cx="22" cy="9" rx="6" ry="3.8" fill="#FF6F5B" opacity=".45"/><path d="M-7 7C-5 15 5 15 7 7C2 9-2 9-7 7Z" fill="#7C2D12" stroke="#5A3112" stroke-width="2.4" stroke-linejoin="round"/></g><path d="M44 74A62 62 0 0 1 82 36" fill="none" stroke="#fff" stroke-width="7" stroke-linecap="round" opacity=".55"/><path transform="translate(40 128) scale(1)" d="M0-10C1-3 3-1 10 0C3 1 1 3 0 10C-1 3-3 1-10 0C-3-1-1-3 0-10Z" fill="#fff"/><path transform="translate(162 120) scale(0.8)" d="M0-10C1-3 3-1 10 0C3 1 1 3 0 10C-1 3-3 1-10 0C-3-1-1-3 0-10Z" fill="#fff"/><path transform="translate(150 48) scale(0.8)" d="M0-10C1-3 3-1 10 0C3 1 1 3 0 10C-1 3-3 1-10 0C-3-1-1-3 0-10Z" fill="#FFF6C8"/></svg>
